<svg width="817" height="663" viewBox="0 0 817 663" fill="none" xmlns="http://www.w3.org/2000/svg">
<g clip-path="url(#clip0)">
<path d="M550.011 608.099C512.014 608.201 474.054 605.713 436.395 600.655C435.166 600.498 433.92 600.322 432.681 600.138C423.438 598.823 414.189 597.321 405.198 595.671C364.737 588.272 326.582 577.465 291.793 563.549C176.022 517.24 103.232 527.096 62.556 543.517C18.5355 561.29 1.61381 590.368 1.44795 590.66L0 589.838C0.16788 589.542 17.3079 560.031 61.8093 542.024C87.9012 531.465 118.17 526.852 151.782 528.305C193.739 530.122 241.053 541.46 292.411 562.002C327.097 575.877 365.146 586.654 405.498 594.034C414.467 595.678 423.694 597.178 432.921 598.49C434.154 598.673 435.389 598.847 436.615 599.004C538.697 613.046 637.175 604.578 701.816 595.003C755.096 587.11 789.384 577.882 789.724 577.79L790.16 579.396C789.82 579.489 755.445 588.742 702.06 596.65C651.722 604.147 600.905 607.974 550.011 608.099V608.099Z" fill="#3F3D56"/>
<path d="M550.124 130.266C520.775 130.266 492.202 128.893 464.635 126.147C401.289 119.838 343.136 106.226 291.793 85.6891C176.022 39.38 103.232 49.2351 62.556 65.6581C18.5355 83.4302 1.61381 112.508 1.44795 112.8L0 111.978C0.16788 111.682 17.3079 82.1717 61.8093 64.1642C87.9016 53.6058 118.17 48.9896 151.782 50.4457C193.739 52.2623 241.053 63.5996 292.411 84.1428C408.364 130.524 537.392 132.347 625.214 125.714C720.404 118.522 789.042 100.115 789.724 99.9304L790.16 101.537C789.477 101.723 720.716 120.165 625.376 127.371C599.849 129.301 574.714 130.266 550.124 130.266Z" fill="#3F3D56"/>
<path d="M545.813 8.04998C545.813 8.04998 513.082 -3.63975 492.04 43.1192C470.999 89.8781 438.268 141.313 438.268 141.313L456.971 145.989C456.971 145.989 461.647 113.258 473.337 108.582L468.661 150.665C468.661 150.665 608.938 199.762 672.062 145.989L669.724 129.623C669.724 129.623 679.076 131.961 679.076 145.989L686.09 138.975C686.09 138.975 679.076 124.947 658.035 106.244C644.224 93.9675 639.478 70.6122 637.847 56.01C636.625 43.8171 631.747 32.278 623.852 22.9063C609.869 6.70061 584.389 -10.5237 545.813 8.04998Z" fill="#2F2E41"/>
<path d="M744.469 272.641C744.469 272.641 806.063 325.176 815.12 355.973C824.178 386.769 780.701 390.393 780.701 390.393L686.499 399.45C686.499 399.45 684.688 442.928 668.384 448.363C652.079 453.797 665.074 376.466 665.074 376.466L757.15 350.538L715.484 307.06L744.469 272.641Z" fill="#FBBEBE"/>
<path d="M456.431 326.988L449.184 423.001L409.33 586.042C409.33 586.042 373.098 660.316 403.895 662.128C434.692 663.939 432.88 591.477 432.88 591.477L490.85 437.493L496.285 332.423L456.431 326.988Z" fill="#FBBEBE"/>
<path d="M557.878 158.512C590.895 158.512 617.66 131.747 617.66 98.7305C617.66 65.7139 590.895 38.9487 557.878 38.9487C524.862 38.9487 498.097 65.7139 498.097 98.7305C498.097 131.747 524.862 158.512 557.878 158.512Z" fill="#FBBEBE"/>
<path d="M530.705 127.716C530.705 127.716 552.443 205.613 518.024 225.54C483.604 245.467 604.979 259.96 637.587 200.178C637.587 200.178 579.617 180.251 595.921 127.716H530.705Z" fill="#FBBEBE"/>
<path d="M489.039 234.598L478.17 230.975C478.17 230.975 456.431 240.033 456.431 256.337C456.431 272.641 452.808 337.857 452.808 337.857L501.72 343.292L489.039 234.598Z" fill="#388E3C"/>
<path d="M701.938 595.827C635.063 605.733 537.592 613.734 436.509 599.831C436.501 598.832 436.501 597.858 436.501 596.909C436.501 591.256 436.717 585.667 437.15 580.142C442.329 512.11 477.377 455.391 490.939 435.735C491.621 434.736 492.254 433.837 492.82 433.038C495.01 429.966 496.283 428.342 496.283 428.342C496.283 428.342 601.354 426.627 655.701 448.364C658.321 449.464 660.719 451.033 662.777 452.993C683.04 471.691 694.945 532.398 701.938 595.827Z" fill="#2F2E41"/>
<path d="M662.949 209.236C662.949 209.236 686.5 196.555 710.05 223.729L757.151 278.076L720.92 317.93L652.08 276.264L662.949 209.236Z" fill="#388E3C"/>
<path d="M493.279 99.1094C514.442 83.7933 531.573 66.1523 542.905 45.1674C542.905 45.1674 581.744 88.321 605.478 90.4787C629.213 92.6364 607.636 38.6944 607.636 38.6944L564.482 27.906L523.486 32.2214L491.121 53.7981L493.279 99.1094Z" fill="#2F2E41"/>
<path d="M628.529 196.555C628.529 196.555 603.177 236.639 527.086 217.503L483.908 229.394L478.169 230.975C478.169 230.975 483.604 339.669 498.096 359.596C512.589 379.524 508.966 390.393 505.342 392.204C501.719 394.016 492.661 390.393 498.096 399.451C503.531 408.509 510.777 403.074 503.531 408.509C496.285 413.943 492.661 433.87 492.661 433.87L662.949 455.609C662.949 455.609 657.514 384.958 672.007 348.727C686.499 312.495 690.122 298.003 690.122 298.003L679.253 207.425L628.529 196.555Z" fill="#388E3C"/>
<path d="M274.619 161.09H41.5166V452.468H274.619V161.09Z" fill="#E6E6E6"/>
<path d="M107.701 185.649H57.751V218.95H107.701V185.649Z" fill="white"/>
<path d="M251.309 250.585H58.167V262.24H251.309V250.585Z" fill="white"/>
<path d="M251.309 281.388H58.167V293.043H251.309V281.388Z" fill="white"/>
<path d="M251.309 312.191H58.167V323.846H251.309V312.191Z" fill="white"/>
<path d="M251.309 342.994H58.167V354.649H251.309V342.994Z" fill="white"/>
<path d="M251.309 373.796H58.167V385.452H251.309V373.796Z" fill="white"/>
<path d="M320.408 452.052C320.397 463.048 316.419 473.671 309.204 481.968C301.989 490.266 292.023 495.682 281.135 497.22C270.247 498.758 259.17 496.315 249.939 490.34C240.708 484.366 233.944 475.261 230.888 464.699C227.832 454.136 228.69 442.825 233.305 432.845C237.92 422.865 245.982 414.885 256.009 410.372C266.036 405.859 277.355 405.117 287.885 408.28C298.416 411.444 307.452 418.302 313.331 427.593C317.955 434.913 320.409 443.394 320.408 452.052V452.052Z" fill="#388E3C"/>
<path d="M313.331 427.593L268.259 472.657C265.427 468.271 249.645 447.89 249.645 447.89C251.667 445.846 253.825 443.94 256.105 442.187L269.192 459.636L308.053 420.775C310.024 422.876 311.791 425.159 313.331 427.593V427.593Z" fill="white"/>
</g>
<defs>
<clipPath id="clip0">
<rect width="816.362" height="662.161" fill="white"/>
</clipPath>
</defs>
</svg>
